<?xml version="1.0" encoding="utf-8"?>
<!-- Generator: Adobe Illustrator 15.0.0, SVG Export Plug-In . SVG Version: 6.00 Build 0)  -->
<!DOCTYPE svg PUBLIC "-//W3C//DTD SVG 1.1//EN" "http://www.w3.org/Graphics/SVG/1.1/DTD/svg11.dtd">
<svg version="1.1" id="Layer_1" xmlns="http://www.w3.org/2000/svg" xmlns:xlink="http://www.w3.org/1999/xlink" x="0px" y="0px"
	 width="922px" height="339px" viewBox="0 0 922 339" enable-background="new 0 0 922 339" xml:space="preserve">
<g>
	<defs>
		<rect id="SVGID_1_" width="922" height="339"/>
	</defs>
	<clipPath id="SVGID_2_">
		<use xlink:href="#SVGID_1_"  overflow="visible"/>
	</clipPath>
	<g clip-path="url(#SVGID_2_)">
		<defs>
			<polygon id="SVGID_3_" points="-5,340.294 927,341.053 927,-2.053 -5,-2.053 			"/>
		</defs>
		<clipPath id="SVGID_4_">
			<use xlink:href="#SVGID_3_"  overflow="visible"/>
		</clipPath>
		<polygon clip-path="url(#SVGID_4_)" fill="#282E2E" points="272.883,263.646 210.867,247.507 141.944,271.128 53.104,236.836 
			15.788,257.04 -4.393,251.542 -4.393,397.856 927,397.856 927,261.135 855.532,286.368 833.861,279.164 809.022,286.368 
			760.438,252.698 729.314,263.646 705.112,250.497 625.537,285.308 598.699,272.977 586.545,280.166 529.993,252.698 
			468.275,271.699 439.573,262.321 422.496,271.699 338.081,236.836 		"/>
		<g clip-path="url(#SVGID_4_)">
			<defs>
				<rect id="SVGID_5_" x="-5" y="-2.053" width="932" height="343.105"/>
			</defs>
			<clipPath id="SVGID_6_">
				<use xlink:href="#SVGID_5_"  overflow="visible"/>
			</clipPath>
			<g opacity="0.11" clip-path="url(#SVGID_6_)">
				<g>
					<defs>
						<rect id="SVGID_7_" x="-5" y="340.294" width="931.606" height="57.563"/>
					</defs>
					<clipPath id="SVGID_8_">
						<use xlink:href="#SVGID_7_"  overflow="visible"/>
					</clipPath>
					<g clip-path="url(#SVGID_8_)">
						<defs>
							<rect id="SVGID_9_" x="-5" y="340.294" width="931.606" height="57.563"/>
						</defs>
						<clipPath id="SVGID_10_">
							<use xlink:href="#SVGID_9_"  overflow="visible"/>
						</clipPath>
						
							<linearGradient id="SVGID_11_" gradientUnits="userSpaceOnUse" x1="154.8169" y1="302.1191" x2="156.3312" y2="302.1191" gradientTransform="matrix(-719.8842 -1.9073 -1.9073 719.8842 112879.4063 -216825.4688)">
							<stop  offset="0" style="stop-color:#FDA14B"/>
							<stop  offset="0.1879" style="stop-color:#FDA14B"/>
							<stop  offset="0.3409" style="stop-color:#FD9A4B"/>
							<stop  offset="0.5711" style="stop-color:#FC854B"/>
							<stop  offset="0.8486" style="stop-color:#FB634A"/>
							<stop  offset="1" style="stop-color:#FA4E4A"/>
						</linearGradient>
						<polygon clip-path="url(#SVGID_10_)" fill="url(#SVGID_11_)" points="926.601,400.325 -5.152,397.856 -4.994,337.824 
							926.759,340.294 						"/>
					</g>
				</g>
			</g>
		</g>
		<rect x="-4.394" y="299.04" clip-path="url(#SVGID_4_)" fill="#C8C8C8" width="931.393" height="42.013"/>
		<g clip-path="url(#SVGID_4_)">
			<defs>
				<rect id="SVGID_12_" x="-5.063" y="-2.178" width="932" height="343.105"/>
			</defs>
			<clipPath id="SVGID_13_">
				<use xlink:href="#SVGID_12_"  overflow="visible"/>
			</clipPath>
			<g opacity="0.11" clip-path="url(#SVGID_13_)">
				<g>
					<defs>
						<rect id="SVGID_14_" x="-5.063" y="-2.178" width="931.607" height="343.105"/>
					</defs>
					<clipPath id="SVGID_15_">
						<use xlink:href="#SVGID_14_"  overflow="visible"/>
					</clipPath>
					<g clip-path="url(#SVGID_15_)">
						<defs>
							<rect id="SVGID_16_" x="-5.063" y="-2.178" width="931.607" height="343.105"/>
						</defs>
						<clipPath id="SVGID_17_">
							<use xlink:href="#SVGID_16_"  overflow="visible"/>
						</clipPath>
						
							<linearGradient id="SVGID_18_" gradientUnits="userSpaceOnUse" x1="154.9238" y1="302.0029" x2="156.2232" y2="302.0029" gradientTransform="matrix(0 -478.9462 -478.9462 0 145104.3438 74531.1328)">
							<stop  offset="0" style="stop-color:#FFFCFF"/>
							<stop  offset="0.1879" style="stop-color:#FFFCFF"/>
							<stop  offset="0.2582" style="stop-color:#F7F9FD"/>
							<stop  offset="0.3643" style="stop-color:#E3F1F8"/>
							<stop  offset="0.4931" style="stop-color:#C1E5EF"/>
							<stop  offset="0.6398" style="stop-color:#91D3E3"/>
							<stop  offset="0.8014" style="stop-color:#55BCD4"/>
							<stop  offset="0.9732" style="stop-color:#0CA1C2"/>
							<stop  offset="1" style="stop-color:#009CBF"/>
						</linearGradient>
						<rect x="-5.063" y="-2.178" clip-path="url(#SVGID_17_)" fill="url(#SVGID_18_)" width="931.607" height="343.105"/>
					</g>
				</g>
			</g>
			<path clip-path="url(#SVGID_13_)" fill="#FFFFFF" d="M498.638,105.583h-130.76c-6.526-7.216,3.132-14.176,12.082-9.665
				c0.879-5.838,5.511-11.083,12.79-12.429c6.479-1.584,12.34,1.179,17.253,5.156c1.333-3.077,4.531-5.433,9.229-5.764
				c6.094-0.388,12.188,4.254,16.676,9.612c7.103-5.192,19.959-1.712,29.34,3.644C471.274,86.269,491.945,100.375,498.638,105.583"
				/>
			<g opacity="0.81" clip-path="url(#SVGID_13_)">
				<g>
					<defs>
						<rect id="SVGID_19_" x="365.8" y="101.544" width="132.834" height="4.046"/>
					</defs>
					<clipPath id="SVGID_20_">
						<use xlink:href="#SVGID_19_"  overflow="visible"/>
					</clipPath>
					<path clip-path="url(#SVGID_20_)" fill="#F0F0F0" d="M498.635,105.59h-130.76c-1.246-1.383-1.909-2.763-2.074-4.046
						l130.642,2.394C497.273,104.55,498.02,105.107,498.635,105.59"/>
				</g>
			</g>
			<path clip-path="url(#SVGID_13_)" fill="#FFFFFF" d="M728.938,139.545H533.534c-9.751-10.786,4.682-21.187,18.057-14.444
				c1.314-8.724,8.236-16.564,19.112-18.575c9.681-2.367,18.441,1.763,25.781,7.706c1.992-4.598,6.772-8.119,13.791-8.613
				c9.109-0.579,18.216,6.357,24.923,14.364c10.612-7.76,29.826-2.559,43.844,5.447C688.052,110.68,718.937,131.759,728.938,139.545
				"/>
			<g opacity="0.81" clip-path="url(#SVGID_13_)">
				<g>
					<defs>
						<rect id="SVGID_21_" x="530.431" y="133.505" width="198.502" height="6.047"/>
					</defs>
					<clipPath id="SVGID_22_">
						<use xlink:href="#SVGID_21_"  overflow="visible"/>
					</clipPath>
					<path clip-path="url(#SVGID_22_)" fill="#F0F0F0" d="M728.933,139.552H533.531c-1.861-2.065-2.852-4.13-3.101-6.045
						l195.23,3.577C726.9,137.998,728.013,138.828,728.933,139.552"/>
				</g>
			</g>
			<path clip-path="url(#SVGID_13_)" fill="#FFFFFF" d="M286.789,153.314H124.324c-8.107-8.967,3.892-17.615,15.012-12.009
				c1.093-7.252,6.85-13.771,15.892-15.444c8.048-1.967,15.331,1.466,21.436,6.408c1.654-3.823,5.629-6.75,11.466-7.163
				c7.573-0.48,15.145,5.285,20.721,11.942c8.824-6.452,24.797-2.126,36.453,4.529C252.793,129.315,278.472,146.841,286.789,153.314
				"/>
			<g opacity="0.81" clip-path="url(#SVGID_13_)">
				<g>
					<defs>
						<rect id="SVGID_23_" x="121.744" y="148.293" width="165.041" height="5.028"/>
					</defs>
					<clipPath id="SVGID_24_">
						<use xlink:href="#SVGID_23_"  overflow="visible"/>
					</clipPath>
					<path clip-path="url(#SVGID_24_)" fill="#F0F0F0" d="M286.785,153.321H124.32c-1.545-1.718-2.371-3.433-2.578-5.028
						l162.32,2.975C285.094,152.028,286.021,152.72,286.785,153.321"/>
				</g>
			</g>
			<path clip-path="url(#SVGID_13_)" fill="#FFFFFF" d="M815.655,117.6H715.604c-2.355-2.761-1.118-6.235,0.879-7.718
				c5.509-4.096,12.464-2.841,18.775,0.188c1.647-4.122,8.038-6.908,13.926-5.495c4.835,1.157,8.385,3.124,11.429,5.603
				c2.654-5.024,16.231-3.649,24.507,0.121C788.813,105.101,810.946,112.103,815.655,117.6"/>
			<path clip-path="url(#SVGID_13_)" fill="#FFFFFF" d="M828.691,181.25H697.931c-6.527-7.217,3.13-14.179,12.08-9.664
				c0.881-5.84,5.514-11.086,12.792-12.431c6.477-1.584,12.337,1.18,17.252,5.157c1.331-3.076,4.529-5.432,9.229-5.764
				c6.094-0.388,12.188,4.254,16.677,9.611c7.104-5.192,19.959-1.71,29.341,3.646C801.327,161.935,821.996,176.04,828.691,181.25"/>
			<g opacity="0.81" clip-path="url(#SVGID_13_)">
				<g>
					<defs>
						<rect id="SVGID_25_" x="695.853" y="177.211" width="132.833" height="4.045"/>
					</defs>
					<clipPath id="SVGID_26_">
						<use xlink:href="#SVGID_25_"  overflow="visible"/>
					</clipPath>
					<path clip-path="url(#SVGID_26_)" fill="#F0F0F0" d="M828.686,181.256H697.928c-1.247-1.383-1.909-2.764-2.075-4.045
						l130.641,2.395C827.324,180.215,828.069,180.771,828.686,181.256"/>
				</g>
			</g>
		</g>
	</g>
</g>
</svg>
