<?xml version="1.0" encoding="utf-8"?>
<!-- Generator: Adobe Illustrator 15.0.0, SVG Export Plug-In . SVG Version: 6.00 Build 0)  -->
<!DOCTYPE svg PUBLIC "-//W3C//DTD SVG 1.1//EN" "http://www.w3.org/Graphics/SVG/1.1/DTD/svg11.dtd">
<svg version="1.1" id="Layer_1" xmlns="http://www.w3.org/2000/svg" xmlns:xlink="http://www.w3.org/1999/xlink" x="0px" y="0px"
	 width="922px" height="339px" viewBox="0 0 922 339" enable-background="new 0 0 922 339" xml:space="preserve">
<path fill="#292D3E" d="M113.452,69.366c0,0.758-0.055,1.489-0.202,2.236l-0.422,1.909c0,0.029-0.031,0.061-0.031,0.061
	l-9.791,43.46c0,0.086-0.022,0.195-0.05,0.279l-0.458,2.067v0.012c-1.464,4.525-5.73,7.776-10.72,7.776H71.37v-0.033l5.617-52.438
	c3.189-21.646,5.528-24.811,7.9-30.56l16.038,7.86C111.07,57.372,113.452,61.659,113.452,69.366"/>
<path fill="#AC4273" d="M887.949,120.872v86.773c0,18.053-15.166,32.633-33.873,32.633h-748.83
	c-18.696,0-33.875-14.58-33.875-32.633v-83.555h20.42c4.998,0,9.269-3.145,10.708-7.478v-0.036l0.458-1.981
	c0.041-0.078,0.083-0.194,0.083-0.303l9.78-41.866c0,0,0.035,0,0.035-0.036l0.425-1.833c0.119-0.703,0.198-1.417,0.198-2.168
	c0-7.399-2.406-11.549-12.539-16.749l-16.03-7.545c6.602-13.467,17.552-21.807,36.332-21.807h200.375h434.136h4.456
	C820.866,22.288,887.949,91.758,887.949,120.872"/>
<path fill="#822B4A" d="M854.702,239.323l-0.63,0.598H718.829c-0.513,1.109-1.106,2.196-1.772,3.238
	c-5.422,8.69-15.09,14.447-26.082,14.447c-10.516,0-19.76-5.241-25.266-13.266c-1.003-1.38-1.858-2.858-2.6-4.42H340.292
	c-2.345,4.978-5.944,9.252-10.484,12.336c-4.944,3.38-10.921,5.35-17.384,5.35c-5.947,0-11.449-1.675-16.161-4.57
	c-5.094-3.117-9.181-7.689-11.702-13.115h-34.592c-2.976,6.317-8.027,11.48-14.274,14.528c-4.083,2.01-8.726,3.157-13.592,3.157
	c-4.344,0-8.501-0.889-12.26-2.524c-6.876-2.979-12.446-8.396-15.604-15.161H105.26c-1.191,0-13.99,0.424-24.183-10.125
	l2.149-106.245l25.151-72.588c0-0.04,0,0.037,0,0c1.785-8.024,9.012-10.07,13.467-10.07h621.775
	c36.222,0,111.897,22.738,130.476,78.467l8.175,93.772l0.039-0.036C883.17,222.825,874.582,238.807,854.702,239.323"/>
<path fill="#292D3E" d="M870.518,114.319c0,2.931-2.396,5.33-5.341,5.33h-734.7c-7.672,0-13.911-6.238-13.911-13.939
	c0-0.758,0.059-1.502,0.199-2.232l0.417-1.922c0-0.023,0.035-0.056,0.035-0.056l9.787-43.46c0-0.085,0.03-0.193,0.058-0.274
	l0.45-2.063v-0.036c1.471-4.514,5.734-7.751,10.724-7.751h616.142c54.591,0,103.613,41.176,115.209,63.379
	c0.229,0.343,0.398,0.677,0.532,1.05C870.381,112.936,870.518,113.608,870.518,114.319"/>
<path fill="#292D3E" d="M887.93,116.358v3.307c-4.885,0-9.789-7.219-11.708-10.98c-0.031-0.025-0.031-0.089-0.067-0.114
	c-0.13-0.282-0.304-0.533-0.477-0.823c-11.783-22.235-56.068-60.194-107.715-66.096c-5.765-0.5-12.221-3.746-12.221-10.205h1.58
	C817.975,31.447,887.93,86.13,887.93,116.358"/>
<path fill="#292D3E" d="M887.93,127.174v52.422l-12.297,4.126c-3.714,1.26-5.126,4.347-5.126,7.955v2.742
	c0,4.759-3.682,8.626-8.32,8.999c-0.969-0.122-1.931-0.195-2.906-0.268c-7.69-0.743-15.082-2.231-22.103-4.344l-156.416-41.164
	l-4.121-1.118c-5.453-2.305-9.321-7.727-9.321-14.043c0-8.47,6.83-15.308,15.304-15.308H887.93z"/>
<path fill="#444954" d="M862.167,203.393c-0.223,0.033-0.424,0.033-0.651,0.033c-0.762,0-1.521-0.086-2.235-0.292
	C860.248,203.231,861.201,203.309,862.167,203.393"/>
<path fill="#444954" d="M680.778,157.62c-1.433-0.167-2.821-0.542-4.138-1.103L680.778,157.62z"/>
<rect x="106.41" y="127.177" fill="#FFFFFF" width="548.206" height="4.574"/>
<rect x="121.62" y="135.416" fill="#FFFFFF" width="532.991" height="4.586"/>
<rect x="138.445" y="143.664" fill="#FFFFFF" width="516.17" height="4.586"/>
<path fill="#E8E6C4" d="M905.566,124.691c0,1.36-1.106,2.461-2.466,2.461h-39.905c-1.365,0-2.471-1.101-2.471-2.461
	c0-1.362,1.105-2.471,2.471-2.471h39.905C904.46,122.22,905.566,123.33,905.566,124.691"/>
<polygon fill="#23292B" points="258.424,212.331 258.424,240.277 185.757,240.277 185.757,212.331 206.729,191.359 237.464,191.359 
	"/>
<polygon fill="#23292B" points="348.736,212.331 348.736,240.277 276.064,240.277 276.064,212.331 297.04,191.359 327.774,191.359 
	"/>
<polygon fill="#23292B" points="727.283,212.331 727.283,240.277 654.615,240.277 654.615,212.331 675.595,191.359 706.323,191.359 
	"/>
<polygon fill="#EB5229" points="106.41,161.256 106.41,206.979 89.077,206.979 92.516,173.359 "/>
<rect x="394.699" y="151.878" fill="#E8E8E8" width="48.266" height="88.395"/>
<path fill="#444954" d="M413.937,203.385c0,1.385-1.121,2.502-2.498,2.502h-7.293c-1.37,0-2.493-1.117-2.493-2.502
	c0-1.368,1.123-2.486,2.493-2.486h7.293C412.816,200.898,413.937,202.017,413.937,203.385"/>
<polygon fill="#E8E8E8" points="795.188,240.277 841.103,240.277 841.103,199.913 795.188,187.759 "/>
<path fill="#4C525E" d="M252.884,227.166c0,17.019-13.785,30.802-30.792,30.802c-17.009,0-30.799-13.783-30.799-30.802
	c0-17.008,13.79-30.794,30.799-30.794C239.099,196.372,252.884,210.158,252.884,227.166"/>
<path fill="#CFEDF4" d="M241.006,227.166c0,10.451-8.47,18.924-18.913,18.924c-10.445,0-18.923-8.473-18.923-18.924
	c0-10.447,8.478-18.917,18.923-18.917C232.537,208.249,241.006,216.719,241.006,227.166"/>
<g opacity="0.26">
	<g>
		<defs>
			<rect id="SVGID_1_" x="199.066" y="204.128" width="46.058" height="46.097"/>
		</defs>
		<clipPath id="SVGID_2_">
			<use xlink:href="#SVGID_1_"  overflow="visible"/>
		</clipPath>
		<path clip-path="url(#SVGID_2_)" fill="#444954" d="M222.067,204.128c-12.682,0-23,10.326-23,23.055
			c0,12.719,10.318,23.042,23,23.042c12.733,0,23.059-10.323,23.059-23.042C245.126,214.454,234.8,204.128,222.067,204.128
			 M222.067,246.079c-10.43,0-18.9-8.462-18.9-18.896c0-10.44,8.47-18.95,18.9-18.95c10.479,0,18.941,8.51,18.941,18.95
			C241.008,237.617,232.546,246.079,222.067,246.079"/>
	</g>
</g>
<path fill="#E3F5F9" d="M236.044,227.177c0,7.885-6.386,14.276-14.311,14.276c-7.891,0-14.282-6.392-14.282-14.276
	c0-7.895,6.391-14.318,14.282-14.318C229.658,212.858,236.044,219.282,236.044,227.177"/>
<path fill="#A9DFEC" d="M233.758,227.166c0,6.633-5.369,11.994-12.025,11.994c-6.621,0-11.996-5.361-11.996-11.994
	c0-6.621,5.375-12.018,11.996-12.018C228.389,215.148,233.758,220.545,233.758,227.166"/>
<path fill="#4C525E" d="M343.199,227.166c0,17.019-13.786,30.802-30.793,30.802c-17.004,0-30.804-13.783-30.804-30.802
	c0-17.008,13.8-30.794,30.804-30.794C329.413,196.372,343.199,210.158,343.199,227.166"/>
<path fill="#CFEDF4" d="M331.315,227.166c0,10.451-8.461,18.924-18.91,18.924c-10.453,0-18.923-8.473-18.923-18.924
	c0-10.447,8.47-18.917,18.923-18.917C322.854,208.249,331.315,216.719,331.315,227.166"/>
<g opacity="0.26">
	<g>
		<defs>
			<rect id="SVGID_3_" x="289.376" y="204.128" width="46.059" height="46.097"/>
		</defs>
		<clipPath id="SVGID_4_">
			<use xlink:href="#SVGID_3_"  overflow="visible"/>
		</clipPath>
		<path clip-path="url(#SVGID_4_)" fill="#444954" d="M312.377,204.128c-12.682,0-23,10.326-23,23.055
			c0,12.719,10.317,23.042,23,23.042c12.733,0,23.059-10.323,23.059-23.042C335.436,214.454,325.11,204.128,312.377,204.128
			 M312.377,246.079c-10.428,0-18.895-8.462-18.895-18.896c0-10.44,8.467-18.95,18.895-18.95c10.479,0,18.938,8.51,18.938,18.95
			C331.315,237.617,322.856,246.079,312.377,246.079"/>
	</g>
</g>
<path fill="#E3F5F9" d="M326.36,227.177c0,7.885-6.386,14.276-14.315,14.276c-7.888,0-14.286-6.392-14.286-14.276
	c0-7.895,6.397-14.318,14.286-14.318C319.974,212.858,326.36,219.282,326.36,227.177"/>
<path fill="#A9DFEC" d="M324.068,227.166c0,6.633-5.361,11.994-12.026,11.994c-6.619,0-11.991-5.361-11.991-11.994
	c0-6.621,5.372-12.018,11.991-12.018C318.708,215.148,324.068,220.545,324.068,227.166"/>
<path fill="#4C525E" d="M721.761,227.166c0,17.019-13.798,30.802-30.81,30.802c-17,0-30.801-13.783-30.801-30.802
	c0-17.008,13.801-30.794,30.801-30.794C707.963,196.372,721.761,210.158,721.761,227.166"/>
<path fill="#CFEDF4" d="M709.875,227.166c0,10.451-8.468,18.924-18.924,18.924c-10.438,0-18.912-8.473-18.912-18.924
	c0-10.447,8.474-18.917,18.912-18.917C701.407,208.249,709.875,216.719,709.875,227.166"/>
<g opacity="0.26">
	<g>
		<defs>
			<rect id="SVGID_5_" x="667.93" y="204.128" width="46.056" height="46.097"/>
		</defs>
		<clipPath id="SVGID_6_">
			<use xlink:href="#SVGID_5_"  overflow="visible"/>
		</clipPath>
		<path clip-path="url(#SVGID_6_)" fill="#444954" d="M690.942,204.128c-12.691,0-23.013,10.326-23.013,23.055
			c0,12.719,10.321,23.042,23.013,23.042c12.725,0,23.043-10.323,23.043-23.042C713.985,214.454,703.667,204.128,690.942,204.128
			 M690.942,246.079c-10.438,0-18.903-8.462-18.903-18.896c0-10.44,8.465-18.95,18.903-18.95c10.473,0,18.933,8.51,18.933,18.95
			C709.875,237.617,701.415,246.079,690.942,246.079"/>
	</g>
</g>
<path fill="#FFFFFF" d="M704.91,227.177c0,7.885-6.387,14.276-14.311,14.276c-7.888,0-14.277-6.392-14.277-14.276
	c0-7.895,6.39-14.318,14.277-14.318C698.523,212.858,704.91,219.282,704.91,227.177"/>
<path fill="#A9DFEC" d="M702.625,227.166c0,6.633-5.369,11.994-12.025,11.994c-6.62,0-11.984-5.361-11.984-11.994
	c0-6.621,5.364-12.018,11.984-12.018C697.256,215.148,702.625,220.545,702.625,227.166"/>
<g>
	<defs>
		<rect id="SVGID_7_" x="183.231" y="309.256" width="801.29" height="216.714"/>
	</defs>
	<clipPath id="SVGID_8_">
		<use xlink:href="#SVGID_7_"  overflow="visible"/>
	</clipPath>
</g>
<g opacity="0.14">
	<g>
		<defs>
			<rect id="SVGID_9_" x="676.615" y="135.586" width="108.297" height="38.972"/>
		</defs>
		<clipPath id="SVGID_10_">
			<use xlink:href="#SVGID_9_"  overflow="visible"/>
		</clipPath>
		<path clip-path="url(#SVGID_10_)" fill="#A1DCEA" d="M784.912,135.586v38.972l-105.106-27.676c-1.967-1.047-3.19-3.048-3.19-5.313
			c0-3.313,2.674-5.982,5.979-5.982H784.912z"/>
	</g>
</g>
<g opacity="0.14">
	<g>
		<defs>
			<rect id="SVGID_11_" x="795.166" y="135.586" width="83.482" height="57.509"/>
		</defs>
		<clipPath id="SVGID_12_">
			<use xlink:href="#SVGID_11_"  overflow="visible"/>
		</clipPath>
		<path clip-path="url(#SVGID_12_)" fill="#A1DCEA" d="M878.648,135.586v36.448l-5.979,2.003l-11.443,3.791v15.267l-1.073-0.072
			c-6.915-0.675-13.75-2.006-20.289-3.981l-44.697-11.774v-41.681H878.648z"/>
	</g>
</g>
<g opacity="0.2">
	<g>
		<defs>
			<rect id="SVGID_13_" x="252.882" y="56.278" width="109.789" height="53.125"/>
		</defs>
		<clipPath id="SVGID_14_">
			<use xlink:href="#SVGID_13_"  overflow="visible"/>
		</clipPath>
		<rect x="252.882" y="56.273" clip-path="url(#SVGID_14_)" fill="#A1DCEA" width="109.789" height="53.13"/>
	</g>
</g>
<g opacity="0.31">
	<g>
		<defs>
			<rect id="SVGID_15_" x="374.56" y="56.278" width="109.777" height="53.125"/>
		</defs>
		<clipPath id="SVGID_16_">
			<use xlink:href="#SVGID_15_"  overflow="visible"/>
		</clipPath>
		<rect x="374.56" y="56.273" clip-path="url(#SVGID_16_)" fill="#A1DCEA" width="109.777" height="53.13"/>
	</g>
</g>
<g opacity="0.2">
	<g>
		<defs>
			<rect id="SVGID_17_" x="496.242" y="56.278" width="109.782" height="53.125"/>
		</defs>
		<clipPath id="SVGID_18_">
			<use xlink:href="#SVGID_17_"  overflow="visible"/>
		</clipPath>
		<rect x="496.242" y="56.273" clip-path="url(#SVGID_18_)" fill="#A1DCEA" width="109.782" height="53.13"/>
	</g>
</g>
<g opacity="0.14">
	<g>
		<defs>
			<rect id="SVGID_19_" x="617.908" y="56.278" width="109.782" height="53.125"/>
		</defs>
		<clipPath id="SVGID_20_">
			<use xlink:href="#SVGID_19_"  overflow="visible"/>
		</clipPath>
		<rect x="617.908" y="56.273" clip-path="url(#SVGID_20_)" fill="#A1DCEA" width="109.782" height="53.13"/>
	</g>
</g>
<g opacity="0.14">
	<g>
		<defs>
			<rect id="SVGID_21_" x="739.588" y="56.278" width="118.522" height="53.125"/>
		</defs>
		<clipPath id="SVGID_22_">
			<use xlink:href="#SVGID_21_"  overflow="visible"/>
		</clipPath>
		<path clip-path="url(#SVGID_22_)" fill="#A1DCEA" d="M858.11,109.403h-118.52V56.278h14.783
			C800.557,56.278,843.246,88.406,858.11,109.403"/>
	</g>
</g>
<g opacity="0.14">
	<g>
		<defs>
			<rect id="SVGID_23_" x="125.663" y="56.278" width="115.137" height="53.125"/>
		</defs>
		<clipPath id="SVGID_24_">
			<use xlink:href="#SVGID_23_"  overflow="visible"/>
		</clipPath>
		<path clip-path="url(#SVGID_24_)" fill="#A1DCEA" d="M240.802,56.278v53.125h-110.53c-2.531,0-4.607-2.084-4.607-4.639v-0.334
			l10.587-47.078c0.298-0.561,0.93-1.074,1.782-1.074H240.802z"/>
	</g>
</g>
<g opacity="0.1">
	<g>
		<defs>
			<rect id="SVGID_25_" x="12.53" y="224.889" width="855.639" height="54.466"/>
		</defs>
		<clipPath id="SVGID_26_">
			<use xlink:href="#SVGID_25_"  overflow="visible"/>
		</clipPath>
		<path clip-path="url(#SVGID_26_)" d="M868.169,237.299c-1.086,17.387-22.299,33.174-34.41,41.234
			c-0.44,0.304-0.855,0.563-1.255,0.821H12.53c12.224-10.919,24.116-22.4,36.378-34.253c7.727-6.947,17.383-15.829,27.899-20.213
			c1.227,1.931,2.679,3.715,4.232,5.316c0.484,0.485,0.967,0.962,1.456,1.368c0.41,0.412,0.813,0.783,1.223,1.084
			c0.446,0.365,0.852,0.702,1.261,1c2.376,1.784,4.793,3.084,7.097,4.046c1.601,0.71,3.271,1.263,4.981,1.639
			c0.48,0.147,1.006,0.259,1.488,0.334c0.555,0.114,1.076,0.187,1.558,0.295c1.675,0.266,3.419,0.412,5.16,0.412h88.945
			c0.781,1.675,1.712,3.229,2.793,4.719c0.513,0.774,1.071,1.49,1.705,2.192c1.187,1.409,2.527,2.713,3.971,3.863
			c0.713,0.592,1.416,1.149,2.195,1.634h0.037c4.904,3.34,10.815,5.272,17.166,5.272c8.618,0,16.422-3.528,21.958-9.248
			c1.224-1.224,2.339-2.563,3.311-4.016c1.002-1.374,1.858-2.855,2.6-4.417h34.588c0.293,0.666,0.631,1.3,1.004,1.929
			c0.373,0.671,0.737,1.301,1.179,1.895c0.307,0.521,0.638,1.004,1.012,1.488c0.107,0.109,0.181,0.22,0.252,0.335
			c0.447,0.594,0.935,1.15,1.456,1.713c0.037,0.072,0.107,0.145,0.19,0.218c0.405,0.484,0.849,0.969,1.33,1.368
			c1.08,1.086,2.192,2.011,3.419,2.866c5.053,3.714,11.294,5.869,18.023,5.869c6.46,0,12.444-2.002,17.383-5.417
			c0.59-0.38,1.154-0.783,1.675-1.227c0.521-0.373,1.004-0.783,1.446-1.195l0.219-0.218c0.488-0.417,0.935-0.819,1.348-1.304
			c0.478-0.481,0.932-1.006,1.373-1.523c0.782-0.851,1.451-1.747,2.079-2.717c0.11-0.176,0.214-0.365,0.368-0.557
			c0.748-1.109,1.372-2.3,1.975-3.523h322.821c2.304,4.899,5.823,9.067,10.217,12.079c1.485,1.068,3.076,2.001,4.754,2.739
			c3.904,1.861,8.284,2.862,12.895,2.862c12.332,0,22.957-7.206,27.854-17.681h135.286
			C859.103,240.383,863.895,239.305,868.169,237.299"/>
	</g>
</g>
</svg>
