<?xml version="1.0" encoding="utf-8"?>
<!-- Generator: Adobe Illustrator 15.0.0, SVG Export Plug-In . SVG Version: 6.00 Build 0)  -->
<!DOCTYPE svg PUBLIC "-//W3C//DTD SVG 1.1//EN" "http://www.w3.org/Graphics/SVG/1.1/DTD/svg11.dtd">
<svg version="1.1" id="Layer_1" xmlns="http://www.w3.org/2000/svg" xmlns:xlink="http://www.w3.org/1999/xlink" x="0px" y="0px"
	 width="808px" height="126px" viewBox="0 0 808 126" enable-background="new 0 0 808 126" xml:space="preserve">
<path fill-rule="evenodd" clip-rule="evenodd" fill="#C9C9C7" d="M295.046,42.049h45.232c11.913,0,5.933,17.401-2.581,26.83
	c-9.797,10.854-23.351,13.94-23.446,14.087c-8.14,12.686,7.666,12.08,20.726,4.857c9.775-5.404,15.5-17.31,17.769-17.979
	c11.083-3.269-10.876,24.797-25.987,31.698c-8.124,3.711-47.093,6.017-50.428-6.059C276.332,78.827,278.226,50.039,295.046,42.049
	 M728.867,102.063l40.055,0.925c18.483-3.633,16.85-18.009,11.165-25.795c-12.008-16.741-9.361-20.066,9.389-27.316
	c2.475-0.961,8.254,2.111,5.179,4.726c-5.938,5.042-5.312,4.586-13.829,6.338c-3.149,3.861-3.258,6.685,5.418,8.127
	c12.262-3.688,27.937-20.975,13.42-28.074l-47.647-0.246c-9.766,4.226-24.13,10.018-23.887,24.872
	c2.455,5.609,5.229,11.291,8.812,17.151c1.684,2.76,4.008,8.942-0.428,10.214c-6.593,1.89-10.393-2.276-12.396-5.411
	c-2.662-4.173,4.178-17.063,1.518-17.686C718.221,68.148,707.903,99.441,728.867,102.063 M634.341,89.272
	c2.304,6.208,7.266,13.632,14.366,13.788l39.708,0.872c18.483-3.63,16.851-18.009,11.165-25.795
	c-12.01-16.739-9.36-20.066,9.39-27.315c2.474-0.962,8.253,2.11,5.178,4.724c-5.938,5.043-5.313,4.586-13.829,6.339
	c-3.15,3.86-3.259,6.685,5.417,8.127c12.263-3.688,27.938-20.975,13.421-28.072l-47.648-0.247
	c-9.766,4.227-24.13,10.019-23.886,24.871c2.458,5.62,5.237,11.311,8.83,17.184c3.837,6.273-2.089,13.92-9.323,8.188
	c-1.813-1.303-3.357-3.14-4.678-5.426l-2.192-3.742c6.489-7.858,9.653-14.622,3.895-12.924c-2.27,0.669-7.994,12.574-17.769,17.979
	c-13.062,7.223-28.867,7.828-20.727-4.857c0.096-0.146,13.648-3.233,23.447-14.087c8.513-9.428,14.495-26.83,2.58-26.83h-45.232
	c-6.552,3.111-10.837,9.378-13.631,16.855l-9.586,2.983c-4.104,1.277-7.685-3.234-4.425-6.095l10.053-8.82
	c7.394-6.48-0.236-11.368-5.675-6.786L538.167,61.27h-3.201c3.156-3.155,22.564-19.451,7.501-19.453h-25.476
	c0.312,28.264-4.141,34.923-13.298,61.563h35.458c0.312-17.447-1.321-23.229,5.418-39.4c3.643,8.488,9.587,18.335,25.374,5.306
	c-1.84,9.212-2.205,18.877-2.205,26.199c3.335,12.075,42.305,9.77,50.428,6.059C623.289,99.203,629.198,94.429,634.341,89.272
	 M358.992,42.278l4.188,34.474l-32.751,25.609l39.645,1.479l15.514-20.193l2.291,15.585c0.756,5.13,9.384,5.816,13.499,3.161
	l18.192-16.775L411.197,126h31.519l3.447-29.056c1.108,2.257,1.97,4.883,5.91,6.402h35.938c9.456,0,21.604-37.886,18.728-52.204
	c-1.139-5.308-4.771-7.498-9.85-7.879c-4.441,0-15.717-1.302-18.802,1.339l-29.461,25.253l16.252-26.593l-50.727-0.494
	l-15.267,14.775l-3.941-15.267H358.992z M425.726,46.833l-0.37,19.944l-19.465,22.789c-1.684,1.975-6.119,2.798-6.166-0.78
	L399.5,71.211L425.726,46.833z M490.721,58.02c2.923,1.89,1.442,12.052-6.645,21.479c-8.086,9.428-16.519,13.077-19.441,11.186
	c-2.922-1.889-0.458-12.051,7.629-21.479C480.352,59.776,487.799,56.128,490.721,58.02 M626.49,54.853
	c1.844,1.415-1.133,7.556-6.649,13.717c-5.517,6.164-11.481,10.012-13.325,8.599c-1.844-1.415,1.134-7.557,6.649-13.718
	C618.681,57.287,624.646,53.439,626.49,54.853 M335.084,54.853c1.843,1.415-1.134,7.556-6.65,13.717
	c-5.516,6.164-11.482,10.012-13.325,8.599c-1.844-1.415,1.134-7.557,6.649-13.718C327.274,57.287,333.24,53.439,335.084,54.853"/>
<path fill-rule="evenodd" clip-rule="evenodd" fill="#A62D63" d="M31.067,3.745h57.622l-10.343,27.58
	c-3.564,19.504-4.333,30.494-4.598,49.85c-0.038,2.703,2.228,1.969,3.063,0.361L115.775,4.73h23.147
	c-13.767,36.713-20.544,58.052-28.073,96.528h-45.8c1.292-30.038,2.933-45.793,8.816-74.534
	C78.647,3.363,37.478,78.11,35.007,87.961l-4.433,14.283H6.443C20.899,66.786,31.874,41.333,31.067,3.745"/>
<path fill-rule="evenodd" clip-rule="evenodd" fill="#A62D63" d="M166.054,3.745h57.622l-10.343,27.58
	c-3.563,19.504-4.334,30.494-4.598,49.85c-0.038,2.703,2.229,1.969,3.062,0.361L250.763,4.73h23.147
	c-13.768,36.713-20.544,58.052-28.073,96.528h-45.8c1.291-30.038,2.934-45.793,8.817-74.534
	c4.78-23.362-36.388,51.386-38.859,61.236l-4.434,14.283h-24.131C155.887,66.786,166.861,41.333,166.054,3.745"/>
<path fill="#231F20" d="M121.937,13.291c2.359,0,5.155,0.582,8.371,1.746c2.505,0.889,4.008,1.325,4.541,1.325
	c0.485,0,0.906-0.129,1.292-0.372l1.036-0.711c0.225-0.162,0.469-0.243,0.759-0.243c0.761,0,1.131,0.743,1.131,2.23
	c0,0.372-0.016,0.888-0.048,1.551c-0.097,1.422-0.146,2.247-0.146,2.472c0,0.842,0.179,2.441,0.534,4.8
	c0.339,2.344,0.63,3.814,0.84,4.379c0.129,0.373,0.194,0.663,0.194,0.857c0,0.694-0.404,1.033-1.229,1.033
	c-0.824,0-1.438-0.743-1.842-2.23c-1.099-3.991-3.102-7.319-5.979-9.97c-2.893-2.65-5.963-3.976-9.21-3.976
	c-2.021,0-3.733,0.63-5.14,1.891c-1.406,1.261-2.101,2.796-2.101,4.589c0,3.137,1.631,7.111,4.896,11.958
	c3.265,4.848,7.822,10.019,13.656,15.546c8.581,8.113,13.607,12.12,15.093,12.024c0.937-0.064,1.891-1.164,2.828-3.313
	c0.955-2.15,1.422-4.217,1.422-6.237c0-3.006-0.581-5.14-1.729-6.433c-1.147-1.292-3.167-2.052-6.028-2.278
	c-2.375-0.226-3.555-0.743-3.555-1.568c0-0.727,0.42-1.099,1.277-1.099c0.501,0,1.067,0.017,1.664,0.049
	c3.313,0.21,5.98,0.324,8,0.324c2.408,0,3.976-0.064,4.735-0.194l1.907-0.323c0.338-0.065,0.678-0.097,0.984-0.097
	c0.986,0,1.471,0.42,1.471,1.277c0,0.582-0.355,0.986-1.083,1.245c-1.146,0.372-1.842,0.775-2.117,1.212
	c-0.274,0.42-0.404,1.309-0.404,2.667c0,2.779-0.856,6.107-2.554,9.986c-1.679,3.829-2.487,6.011-2.455,6.578
	c0.08,1.842,2.036,3.862,5.834,6.074c3.813,2.215,7.239,3.313,10.309,3.313c1.407,0,2.62-0.129,3.588-0.372l2.699-0.76
	c0.291-0.064,0.533-0.096,0.759-0.096c0.791,0,1.163,0.309,1.132,0.904c-0.098,1.066-1.875,2.232-5.334,3.491
	c-3.442,1.261-6.593,1.892-9.438,1.892c-4.605,0-9.729-1.358-15.385-4.074c-0.905-0.437-1.583-0.662-2.036-0.662
	c-0.5,0-1.18,0.196-2.036,0.565l-4.25,1.892c-4.864,2.117-10.407,3.184-16.628,3.184c-8.146,0-14.739-2.101-19.813-6.319
	c-5.059-4.216-7.595-9.712-7.595-16.499c0-3.975,1.034-7.611,3.086-10.893c2.052-3.279,4.799-5.704,8.243-7.287
	c1.453-0.664,2.165-1.342,2.165-2.038c0-0.338-0.129-0.839-0.42-1.47c-0.856-2.02-1.276-4.364-1.276-7.047
	c0-4.135,1.471-7.595,4.395-10.357C113.889,14.665,117.542,13.291,121.937,13.291 M109.203,39.375
	c-0.759-0.065-2.085,0.71-3.992,2.327c-2.117,1.729-3.119,3.83-2.989,6.286c0.194,4.202,2.279,8.889,6.254,14.076
	c2.94,3.847,6.431,6.853,10.488,9.017c4.056,2.166,8.241,3.249,12.524,3.249c2.57,0,4.767-0.355,6.642-1.067
	c1.859-0.711,2.796-1.549,2.796-2.503c0-0.762-0.825-1.681-2.473-2.796c-5.461-3.652-10.713-7.935-15.756-12.847
	c-5.058-4.914-8.596-9.163-10.649-12.751C110.933,40.424,109.995,39.439,109.203,39.375"/>
</svg>
